<svg xmlns="http://www.w3.org/2000/svg" width="100" height="100" viewBox="0 0 100 100" shape-rendering="geometricPrecision">
    <path fill="rgb(160, 53, 107)" fill-rule="evenodd" d="M 76 83 L 75 84 L 75 87 L 76 88 L 77 87 L 77 83 Z M 68 83 L 67 84 L 67 87 L 68 88 L 69 88 L 69 83 Z M 60 83 L 60 88 L 61 88 L 61 83 Z M 52 83 L 52 88 L 53 88 L 53 83 Z M 44 83 L 44 88 L 45 88 L 46 87 L 46 84 L 45 83 Z M 36 83 L 36 87 L 37 88 L 38 87 L 38 83 Z M 29 83 L 28 84 L 28 87 L 29 88 L 30 88 L 30 83 Z M 51 1 L 50 2 L 49 2 L 48 3 L 47 3 L 42 8 L 42 9 L 40 11 L 40 12 L 39 13 L 38 13 L 37 14 L 36 14 L 35 15 L 34 15 L 31 18 L 30 18 L 29 19 L 29 20 L 27 22 L 27 23 L 26 24 L 26 25 L 25 26 L 25 27 L 24 28 L 24 32 L 23 33 L 23 44 L 24 45 L 24 48 L 25 49 L 25 50 L 26 51 L 26 52 L 27 53 L 27 54 L 28 55 L 28 56 L 30 58 L 30 59 L 31 60 L 31 61 L 32 62 L 32 64 L 30 66 L 29 66 L 27 68 L 27 69 L 26 70 L 26 74 L 27 75 L 27 76 L 23 80 L 23 81 L 22 82 L 22 85 L 21 86 L 21 94 L 22 95 L 83 95 L 84 94 L 84 84 L 83 83 L 83 81 L 78 76 L 79 75 L 79 69 L 76 66 L 75 66 L 74 65 L 72 65 L 71 64 L 71 60 L 70 59 L 70 58 L 69 57 L 69 56 L 66 53 L 66 52 L 64 50 L 63 50 L 57 44 L 56 44 L 55 43 L 56 42 L 60 42 L 61 41 L 63 41 L 65 43 L 66 43 L 67 44 L 69 44 L 70 43 L 71 43 L 73 41 L 74 41 L 78 37 L 78 36 L 77 35 L 77 34 L 76 33 L 76 32 L 73 29 L 73 28 L 63 18 L 63 17 L 62 16 L 62 15 L 60 13 L 59 13 L 58 12 L 57 12 L 56 11 L 55 11 L 54 10 L 54 1 Z M 28 79 L 77 79 L 81 83 L 81 86 L 82 87 L 82 91 L 81 92 L 25 92 L 24 91 L 24 84 L 25 83 L 25 82 Z M 31 68 L 74 68 L 76 70 L 76 71 L 77 72 L 76 73 L 76 74 L 74 76 L 31 76 L 29 74 L 29 70 Z M 49 5 L 51 5 L 52 6 L 52 13 L 54 13 L 55 14 L 56 14 L 57 15 L 58 15 L 60 17 L 60 18 L 61 19 L 61 20 L 72 31 L 72 32 L 74 34 L 74 35 L 75 36 L 72 39 L 71 39 L 69 41 L 67 41 L 65 39 L 63 39 L 62 38 L 60 38 L 58 40 L 55 40 L 52 37 L 52 36 L 50 36 L 50 41 L 60 51 L 61 51 L 64 54 L 64 55 L 67 58 L 67 59 L 68 60 L 68 61 L 69 62 L 69 65 L 68 66 L 37 66 L 35 64 L 35 62 L 34 61 L 34 60 L 33 59 L 33 58 L 32 57 L 32 56 L 30 54 L 30 53 L 28 51 L 28 50 L 27 49 L 27 47 L 26 46 L 26 42 L 25 41 L 25 36 L 26 35 L 26 30 L 27 29 L 27 28 L 28 27 L 28 26 L 29 25 L 29 24 L 36 17 L 37 17 L 38 16 L 39 16 L 40 15 L 41 15 L 42 14 L 42 13 L 43 12 L 43 11 Z"/><path fill="rgb(242, 161, 166)" fill-rule="evenodd" d="M 31 69 L 30 70 L 30 74 L 31 75 L 74 75 L 75 74 L 75 73 L 76 72 L 75 71 L 75 70 L 74 69 Z M 43 13 L 43 14 L 42 15 L 43 14 Z"/><path fill="rgb(237, 198, 145)" fill-rule="evenodd" d="M 29 80 L 26 83 L 26 84 L 25 85 L 25 91 L 52 91 L 52 89 L 50 87 L 50 84 L 52 82 L 52 80 Z M 43 83 L 44 82 L 46 82 L 47 83 L 47 88 L 46 89 L 44 89 L 43 88 L 43 87 L 42 86 L 42 85 L 43 84 Z M 35 83 L 36 82 L 38 82 L 39 83 L 39 88 L 38 89 L 36 89 L 35 88 Z M 27 83 L 28 82 L 30 82 L 31 83 L 31 84 L 32 85 L 32 86 L 31 87 L 31 88 L 30 89 L 28 89 L 27 88 Z M 50 6 L 48 8 L 47 8 L 46 9 L 46 10 L 44 12 L 44 14 L 42 16 L 41 16 L 40 17 L 39 17 L 38 18 L 37 18 L 36 19 L 35 19 L 31 23 L 31 24 L 29 26 L 29 28 L 28 29 L 28 31 L 27 32 L 27 44 L 28 45 L 28 47 L 29 48 L 29 50 L 31 52 L 31 53 L 32 54 L 32 55 L 34 57 L 34 58 L 35 59 L 35 60 L 36 61 L 36 64 L 52 64 L 52 63 L 51 62 L 51 61 L 50 60 L 50 59 L 38 47 L 38 46 L 37 45 L 37 43 L 36 42 L 36 35 L 37 34 L 37 31 L 42 26 L 43 26 L 44 25 L 45 25 L 46 24 L 47 24 L 51 20 L 51 18 L 52 17 L 52 15 L 53 14 L 52 14 L 50 12 Z"/><path fill="rgb(247, 225, 176)" fill-rule="evenodd" d="M 53 80 L 53 82 L 54 82 L 55 83 L 55 88 L 54 89 L 53 89 L 53 91 L 80 91 L 80 84 L 79 83 L 79 82 L 78 81 L 77 81 L 76 80 Z M 74 83 L 75 82 L 77 82 L 78 83 L 78 88 L 77 89 L 75 89 L 74 88 Z M 66 83 L 67 82 L 69 82 L 71 84 L 71 87 L 69 89 L 67 89 L 66 88 Z M 58 83 L 59 82 L 62 82 L 63 83 L 63 87 L 61 89 L 59 89 L 58 88 Z M 53 15 L 53 17 L 52 18 L 52 20 L 47 25 L 46 25 L 45 26 L 44 26 L 43 27 L 42 27 L 38 31 L 38 34 L 37 35 L 37 42 L 38 43 L 38 45 L 39 46 L 39 47 L 51 59 L 51 60 L 52 61 L 52 62 L 53 63 L 53 64 L 67 64 L 67 61 L 66 60 L 66 59 L 64 57 L 64 56 L 59 51 L 58 51 L 49 42 L 49 41 L 48 40 L 48 36 L 49 35 L 50 35 L 51 34 L 54 37 L 54 38 L 59 38 L 61 36 L 62 37 L 64 37 L 65 38 L 66 38 L 68 40 L 69 39 L 70 39 L 73 36 L 73 35 L 71 33 L 71 32 L 66 27 L 66 26 L 65 26 L 60 21 L 60 20 L 59 19 L 59 18 L 57 16 L 56 16 L 55 15 Z"/>
</svg>