<svg xmlns="http://www.w3.org/2000/svg" width="100" height="100" viewBox="0 0 100 100" shape-rendering="geometricPrecision">
    <path fill="rgb(86, 60, 149)" fill-rule="evenodd" d="M 74 85 L 74 89 L 75 89 L 75 85 Z M 66 85 L 66 89 L 67 89 L 67 85 Z M 58 85 L 58 89 L 60 89 L 60 85 Z M 50 85 L 50 89 L 52 89 L 52 85 Z M 43 85 L 42 86 L 42 88 L 43 89 L 44 89 L 44 85 Z M 35 85 L 35 89 L 36 89 L 36 85 Z M 27 85 L 27 89 L 28 89 L 28 85 Z M 49 0 L 48 1 L 47 1 L 46 2 L 46 3 L 45 4 L 45 9 L 47 11 L 46 12 L 46 13 L 45 14 L 45 15 L 44 16 L 37 16 L 36 15 L 33 15 L 32 16 L 32 17 L 33 18 L 33 20 L 34 21 L 34 22 L 35 23 L 35 25 L 36 26 L 36 28 L 37 29 L 37 30 L 38 31 L 37 32 L 36 32 L 35 33 L 34 33 L 31 36 L 31 42 L 32 43 L 32 44 L 34 46 L 39 46 L 40 47 L 40 54 L 39 55 L 39 60 L 38 61 L 38 63 L 37 64 L 37 65 L 35 67 L 28 67 L 25 70 L 25 77 L 26 78 L 25 79 L 24 79 L 21 82 L 21 83 L 20 84 L 20 96 L 82 96 L 82 84 L 81 83 L 81 82 L 78 79 L 77 79 L 76 78 L 77 77 L 77 76 L 78 75 L 78 73 L 77 72 L 77 70 L 74 67 L 67 67 L 65 65 L 65 64 L 64 63 L 64 61 L 63 60 L 63 55 L 62 54 L 62 47 L 63 46 L 68 46 L 71 43 L 71 36 L 68 33 L 67 33 L 65 31 L 65 29 L 66 28 L 66 26 L 67 25 L 67 24 L 68 23 L 68 21 L 69 20 L 69 19 L 70 18 L 70 16 L 69 15 L 66 15 L 65 16 L 59 16 L 57 14 L 57 13 L 56 12 L 56 10 L 57 9 L 57 3 L 55 1 L 54 1 L 53 0 Z M 27 81 L 28 80 L 75 80 L 79 84 L 79 85 L 80 86 L 80 93 L 79 94 L 23 94 L 22 93 L 22 87 L 23 86 L 23 84 L 26 81 Z M 30 70 L 31 69 L 72 69 L 75 72 L 75 75 L 72 78 L 30 78 L 27 75 L 27 73 L 28 72 L 28 71 L 29 70 Z M 42 47 L 43 46 L 59 46 L 60 47 L 60 57 L 61 58 L 61 62 L 62 63 L 62 65 L 63 66 L 62 67 L 40 67 L 39 66 L 40 65 L 40 63 L 41 62 L 41 59 L 42 58 Z M 36 35 L 66 35 L 69 38 L 69 40 L 68 41 L 68 42 L 67 43 L 66 43 L 65 44 L 37 44 L 36 43 L 35 43 L 34 42 L 34 40 L 33 39 L 34 38 L 34 37 Z M 48 13 L 49 12 L 53 12 L 54 13 L 54 14 L 55 15 L 55 16 L 56 17 L 56 18 L 57 19 L 61 19 L 62 18 L 65 18 L 66 19 L 66 21 L 65 22 L 65 24 L 64 25 L 64 26 L 63 27 L 63 29 L 62 30 L 62 31 L 60 33 L 42 33 L 40 31 L 40 29 L 39 28 L 39 27 L 38 26 L 38 24 L 37 23 L 37 22 L 36 21 L 36 19 L 37 18 L 40 18 L 41 19 L 45 19 L 46 18 L 46 17 L 47 16 L 47 15 L 48 14 Z M 50 3 L 51 2 L 52 3 L 53 3 L 55 5 L 55 7 L 52 10 L 50 10 L 47 7 L 47 6 L 48 5 L 48 4 L 49 3 Z"/><path fill="rgb(123, 83, 217)" fill-rule="evenodd" d="M 42 89 L 43 90 L 44 90 L 43 90 Z M 23 87 L 23 93 L 50 93 L 24 93 L 23 92 Z M 74 84 L 73 85 L 73 89 L 74 90 L 75 90 L 76 89 L 76 85 L 75 84 Z M 73 85 L 74 84 L 75 84 L 76 85 L 76 89 L 75 90 L 74 90 L 73 89 Z M 66 84 L 67 84 L 68 85 L 68 89 L 67 90 L 66 90 L 67 90 L 68 89 L 68 85 L 67 84 Z M 43 84 L 42 85 L 43 84 L 44 84 Z M 35 84 L 34 85 L 34 89 L 35 90 L 36 90 L 37 89 L 37 85 L 36 84 Z M 34 85 L 35 84 L 36 84 L 37 85 L 37 89 L 36 90 L 35 90 L 34 89 Z M 27 84 L 26 85 L 26 89 L 27 90 L 28 90 L 29 89 L 29 85 L 28 84 Z M 26 85 L 27 84 L 28 84 L 29 85 L 29 89 L 28 90 L 27 90 L 26 89 Z M 31 70 L 30 71 L 29 71 L 29 72 L 28 73 L 28 75 L 30 77 L 72 77 L 74 75 L 74 72 L 72 70 Z M 36 36 L 35 37 L 35 38 L 34 39 L 35 40 L 35 42 L 36 42 L 37 43 L 65 43 L 66 42 L 67 42 L 67 41 L 68 40 L 68 38 L 66 36 Z M 38 19 L 37 20 L 37 21 L 37 20 L 38 19 L 40 19 Z M 53 4 L 54 5 L 54 7 L 54 5 Z"/><path fill="rgb(237, 198, 145)" fill-rule="evenodd" d="M 27 82 L 24 85 L 24 92 L 50 92 L 51 93 L 78 93 L 79 92 L 79 88 L 79 92 L 78 93 L 52 93 L 51 92 L 51 91 L 52 90 L 51 91 L 49 89 L 49 85 L 51 83 L 52 84 L 51 83 L 51 82 Z M 43 83 L 44 83 L 45 84 L 45 85 L 46 86 L 46 88 L 45 89 L 45 90 L 44 91 L 43 91 L 41 89 L 41 85 Z M 35 83 L 36 83 L 38 85 L 38 89 L 36 91 L 35 91 L 33 89 L 33 85 Z M 27 83 L 28 83 L 30 85 L 30 89 L 28 91 L 27 91 L 25 89 L 25 85 Z M 44 47 L 44 53 L 43 54 L 43 60 L 42 61 L 42 64 L 41 65 L 41 66 L 51 66 L 51 47 Z M 50 13 L 49 14 L 49 15 L 48 16 L 48 17 L 47 18 L 47 19 L 45 21 L 44 20 L 38 20 L 37 19 L 38 20 L 38 22 L 39 23 L 39 24 L 40 25 L 40 27 L 41 28 L 41 30 L 42 31 L 42 32 L 60 32 L 52 32 L 51 31 L 51 13 Z M 50 4 L 49 5 L 49 8 L 50 8 L 51 9 L 52 9 L 51 8 L 51 4 Z"/><path fill="rgb(247, 225, 176)" fill-rule="evenodd" d="M 52 82 L 52 83 L 53 84 L 53 90 L 52 91 L 52 92 L 78 92 L 78 85 L 75 82 Z M 74 83 L 75 83 L 77 85 L 77 89 L 75 91 L 74 91 L 72 89 L 72 85 Z M 66 83 L 67 83 L 69 85 L 69 89 L 67 91 L 66 91 L 64 89 L 64 85 Z M 57 84 L 58 83 L 60 83 L 61 84 L 61 89 L 59 91 L 58 91 L 57 90 L 57 89 L 56 88 L 56 86 L 57 85 Z M 52 47 L 52 66 L 61 66 L 61 65 L 60 64 L 60 61 L 59 60 L 59 55 L 58 54 L 58 47 Z M 52 13 L 52 31 L 60 31 L 61 30 L 61 28 L 62 27 L 62 26 L 63 25 L 63 23 L 64 22 L 64 20 L 59 20 L 58 21 L 57 21 L 55 19 L 55 18 L 54 17 L 54 16 L 53 15 L 53 14 Z M 52 4 L 52 8 L 53 8 L 53 5 Z"/>
</svg>