<svg xmlns="http://www.w3.org/2000/svg" width="100" height="100" viewBox="0 0 100 100" shape-rendering="geometricPrecision">
    <path fill="rgb(152, 54, 56)" fill-rule="evenodd" d="M 73 83 L 72 84 L 72 87 L 73 88 L 74 87 L 74 84 Z M 65 83 L 64 84 L 64 87 L 65 88 L 66 87 L 66 84 Z M 57 83 L 57 88 L 58 87 L 58 83 Z M 49 83 L 49 88 L 50 88 L 50 83 Z M 41 83 L 41 87 L 42 88 L 42 83 Z M 34 83 L 33 84 L 33 87 L 34 88 L 35 87 L 35 84 Z M 26 83 L 25 84 L 25 87 L 26 88 L 27 87 L 27 84 Z M 21 15 L 20 16 L 20 27 L 21 28 L 21 29 L 22 30 L 22 31 L 23 32 L 24 32 L 25 33 L 26 33 L 27 34 L 29 34 L 30 35 L 29 36 L 29 40 L 30 41 L 30 42 L 32 44 L 33 44 L 34 45 L 36 45 L 37 46 L 37 55 L 36 56 L 36 59 L 35 60 L 35 62 L 34 63 L 34 64 L 33 65 L 28 65 L 27 66 L 26 66 L 24 68 L 24 69 L 23 70 L 23 75 L 24 76 L 20 80 L 20 81 L 19 82 L 19 83 L 18 84 L 18 94 L 19 95 L 80 95 L 81 94 L 81 84 L 80 83 L 80 82 L 79 81 L 79 80 L 75 76 L 76 75 L 76 70 L 75 69 L 75 68 L 73 66 L 72 66 L 71 65 L 66 65 L 65 64 L 65 63 L 64 62 L 64 60 L 63 59 L 63 56 L 62 55 L 62 46 L 63 45 L 65 45 L 66 44 L 67 44 L 69 42 L 69 41 L 70 40 L 70 36 L 69 35 L 70 34 L 72 34 L 73 33 L 74 33 L 75 32 L 76 32 L 77 31 L 77 30 L 78 29 L 78 28 L 79 27 L 79 16 L 78 15 L 64 15 L 64 20 L 63 21 L 58 21 L 56 19 L 56 17 L 57 16 L 57 15 L 42 15 L 42 16 L 43 17 L 43 19 L 41 21 L 36 21 L 34 19 L 34 17 L 35 16 L 35 15 Z M 26 79 L 27 78 L 29 78 L 30 79 L 49 79 L 50 78 L 72 78 L 73 79 L 74 79 L 78 83 L 78 86 L 79 87 L 79 91 L 77 93 L 22 93 L 20 91 L 20 87 L 21 86 L 21 83 L 25 79 Z M 29 68 L 30 67 L 69 67 L 70 68 L 71 68 L 74 71 L 74 73 L 73 74 L 73 75 L 72 76 L 71 76 L 70 77 L 29 77 L 28 76 L 27 76 L 26 75 L 26 74 L 25 73 L 25 72 L 26 71 L 26 70 L 28 68 Z M 39 45 L 40 44 L 59 44 L 60 45 L 60 57 L 61 58 L 61 61 L 62 62 L 62 63 L 63 64 L 63 65 L 62 66 L 37 66 L 36 65 L 36 64 L 37 63 L 37 62 L 38 61 L 38 58 L 39 57 Z M 35 33 L 64 33 L 67 36 L 67 40 L 65 42 L 63 42 L 62 43 L 50 43 L 49 42 L 34 42 L 32 40 L 32 36 Z M 22 18 L 23 17 L 32 17 L 33 18 L 33 22 L 44 22 L 44 18 L 45 17 L 54 17 L 55 18 L 55 22 L 66 22 L 66 18 L 67 17 L 76 17 L 77 18 L 77 26 L 76 27 L 76 28 L 73 31 L 71 31 L 70 32 L 65 32 L 64 31 L 35 31 L 34 32 L 29 32 L 28 31 L 26 31 L 23 28 L 23 27 L 22 26 Z"/><path fill="rgb(224, 74, 74)" fill-rule="evenodd" d="M 21 87 L 21 91 L 22 92 L 77 92 L 78 91 L 78 87 L 78 91 L 77 92 L 22 92 L 21 91 Z M 37 64 L 37 65 L 49 65 L 38 65 Z M 57 17 L 57 19 L 58 20 L 63 20 L 58 20 L 57 19 Z M 35 17 L 35 19 L 36 20 L 41 20 L 42 19 L 42 17 L 42 19 L 41 20 L 36 20 L 35 19 Z"/><path fill="rgb(237, 162, 133)" fill-rule="evenodd" d="M 29 69 L 27 71 L 27 74 L 28 75 L 71 75 L 72 74 L 72 70 L 71 69 Z M 41 45 L 40 46 L 40 54 L 40 46 L 41 45 L 58 45 L 59 46 L 59 54 L 59 46 L 58 45 Z M 34 35 L 34 36 L 33 37 L 33 39 L 35 41 L 64 41 L 66 39 L 66 36 L 65 35 Z"/><path fill="rgb(237, 198, 145)" fill-rule="evenodd" d="M 26 80 L 25 81 L 24 81 L 24 82 L 23 83 L 23 84 L 22 85 L 22 91 L 49 91 L 49 89 L 47 87 L 47 83 L 48 82 L 49 82 L 49 80 Z M 41 82 L 43 82 L 44 83 L 44 88 L 43 89 L 41 89 L 39 87 L 39 84 Z M 32 83 L 33 82 L 35 82 L 36 83 L 36 88 L 35 89 L 33 89 L 32 88 Z M 24 83 L 25 82 L 27 82 L 28 83 L 28 88 L 27 89 L 25 89 L 24 88 Z M 41 46 L 41 54 L 40 55 L 40 60 L 39 61 L 39 63 L 38 64 L 49 64 L 49 46 Z M 24 19 L 24 26 L 25 27 L 25 28 L 26 29 L 27 29 L 28 30 L 49 30 L 49 19 L 46 19 L 46 21 L 43 24 L 34 24 L 31 21 L 31 19 Z"/><path fill="rgb(247, 225, 176)" fill-rule="evenodd" d="M 50 80 L 50 82 L 51 82 L 52 83 L 52 87 L 50 89 L 50 91 L 77 91 L 77 85 L 76 84 L 76 83 L 75 82 L 75 81 L 74 81 L 73 80 Z M 71 83 L 72 82 L 74 82 L 75 83 L 75 88 L 74 89 L 72 89 L 71 88 Z M 63 83 L 64 82 L 66 82 L 67 83 L 67 88 L 66 89 L 64 89 L 63 88 Z M 55 83 L 56 82 L 58 82 L 60 84 L 60 87 L 58 89 L 56 89 L 55 88 Z M 50 46 L 50 64 L 61 64 L 60 63 L 60 61 L 59 60 L 59 56 L 58 55 L 58 46 Z M 50 19 L 50 30 L 71 30 L 72 29 L 73 29 L 74 28 L 74 27 L 75 26 L 75 19 L 67 19 L 67 22 L 65 24 L 55 24 L 54 23 L 54 22 L 53 21 L 53 19 Z"/>
</svg>